<?xml version="1.0" standalone="no"?>
<!DOCTYPE svg PUBLIC "-//W3C//DTD SVG 20010904//EN"
 "http://www.w3.org/TR/2001/REC-SVG-20010904/DTD/svg10.dtd">
<svg version="1.0" xmlns="http://www.w3.org/2000/svg"
 width="1508.000000pt" height="1508.000000pt" viewBox="0 0 1508.000000 1508.000000"
 preserveAspectRatio="xMidYMid meet">
<metadata>
Created by potrace 1.11, written by Peter Selinger 2001-2013
</metadata>
<g transform="translate(0.000000,1508.000000) scale(0.100000,-0.100000)"
fill="#000000" stroke="none">
<path d="M1150 11451 c0 -5 -13 -14 -29 -21 -17 -6 -50 -34 -75 -61 l-46 -50
0 -854 0 -854 22 -15 c20 -14 157 -16 1263 -16 l1240 0 6 -47 c3 -27 3 -54 0
-61 -6 -10 -245 -13 -1176 -15 l-1170 -2 -47 -23 c-25 -13 -67 -44 -92 -70
l-46 -46 0 -2493 c0 -1371 3 -2493 8 -2493 4 0 16 -16 27 -36 30 -57 80 -89
160 -103 55 -10 426 -11 1695 -7 894 3 1817 8 2052 11 380 5 427 4 422 -10 -5
-13 76 -15 740 -15 654 0 747 2 752 15 5 13 76 15 554 15 434 0 563 3 621 14
41 8 126 17 189 20 63 3 137 12 164 21 27 8 79 15 116 15 36 0 71 5 77 11 6 6
48 15 93 20 45 5 94 16 110 24 16 8 49 15 73 15 24 0 52 7 63 15 10 8 35 15
54 15 20 0 45 7 57 15 11 8 40 17 64 21 24 4 53 13 64 20 11 8 31 14 46 14 15
0 32 7 39 15 7 8 22 15 34 15 12 0 38 9 59 20 20 11 45 20 56 20 10 0 21 7 25
15 3 8 15 15 27 15 11 0 32 9 46 20 14 11 34 20 43 20 10 0 23 7 30 15 7 8 20
15 30 15 9 0 25 9 35 20 10 11 26 20 35 20 10 0 20 7 24 15 3 8 15 15 26 15
11 0 20 4 20 8 0 10 77 62 91 62 5 0 9 4 9 8 0 4 32 33 72 63 95 71 237 214
318 319 37 47 69 92 73 100 4 8 16 29 27 45 11 17 27 44 35 62 8 17 19 34 25
38 5 3 10 14 10 23 0 9 9 28 20 42 11 14 20 35 20 46 0 12 6 27 14 33 8 6 16
26 19 44 3 18 12 52 20 77 36 105 47 147 47 179 0 53 21 101 44 101 19 0 18 0
-1 18 -15 13 -20 25 -16 45 3 15 9 30 14 33 5 3 9 10 9 15 0 6 -4 7 -10 4 -15
-9 -12 26 5 59 18 34 19 39 4 30 -15 -9 -1 55 16 76 25 30 29 45 7 26 -12 -11
-22 -14 -22 -8 0 36 41 85 215 261 107 107 192 197 189 200 -3 3 -90 -80 -194
-184 -104 -104 -192 -186 -196 -182 -4 4 0 15 9 25 10 10 17 25 17 33 0 7 66
80 147 161 81 82 143 148 138 148 -6 0 -71 -61 -145 -136 -74 -74 -143 -140
-152 -145 -31 -17 -21 26 14 68 l33 38 -36 -27 c-43 -32 -51 -28 -38 15 5 18
9 33 9 33 0 1 -8 0 -18 -3 -12 -3 -18 2 -19 16 -1 11 2 23 8 26 16 10 10 25
-8 18 -14 -5 -15 -1 -10 31 3 20 2 34 -3 31 -11 -7 -41 59 -70 150 -129 404
-509 788 -980 990 -36 15 -78 33 -95 40 -16 8 -88 32 -160 56 -71 23 -141 50
-154 61 -13 10 -36 18 -52 18 -15 0 -30 4 -34 9 -7 13 27 31 58 31 14 0 30 6
36 14 7 8 24 17 39 20 26 6 81 30 112 48 8 4 29 15 45 23 29 15 44 23 83 45 9
6 24 13 32 17 8 4 36 22 62 40 26 18 52 33 57 33 6 0 14 6 18 13 4 7 20 20 35
30 15 9 40 29 56 45 16 15 49 46 73 69 90 85 179 190 179 212 0 6 5 11 10 11
6 0 13 8 17 18 3 9 12 24 19 32 22 26 124 230 124 248 0 10 6 26 14 37 7 11
17 38 20 60 8 47 25 77 33 58 6 -16 23 -17 23 -3 0 6 11 28 25 50 27 42 31 55
15 45 -13 -8 -13 16 1 52 7 19 7 29 0 31 -15 5 -14 22 3 55 13 23 13 27 0 27
-11 0 -13 7 -8 28 4 15 11 31 15 37 14 15 10 25 -7 18 -12 -4 -14 0 -8 23 4
16 11 33 15 39 14 15 10 25 -7 18 -12 -4 -14 0 -8 23 4 16 11 33 15 39 14 15
10 25 -7 18 -12 -4 -14 0 -8 23 4 16 14 37 23 48 15 18 15 18 -7 12 -21 -7
-22 -5 -16 21 4 15 14 36 23 47 15 18 15 18 -6 12 -19 -6 -23 -4 -23 16 0 13
6 30 13 37 10 11 8 12 -10 6 -19 -5 -23 -3 -23 16 0 12 7 31 17 41 18 20 4 25
-15 6 -17 -17 -16 43 1 61 10 11 8 12 -10 6 -20 -5 -23 -3 -23 19 0 14 5 28
10 31 6 3 10 11 10 18 0 8 -3 8 -12 -1 -21 -21 -31 -13 -25 22 4 28 3 34 -9
29 -18 -7 -19 37 -1 56 10 11 8 12 -9 7 -26 -8 -41 19 -23 40 9 11 7 14 -11
14 -20 0 -22 4 -16 31 5 26 4 29 -8 20 -11 -9 -15 -7 -19 11 -4 12 -1 28 6 36
10 13 8 14 -12 7 -22 -7 -23 -5 -19 24 4 27 2 30 -14 25 -17 -5 -23 8 -19 43
1 7 -5 10 -12 7 -8 -3 -17 3 -21 12 -5 14 27 51 133 158 78 77 138 142 135
145 -3 3 -65 -55 -139 -129 -73 -74 -138 -136 -143 -138 -5 -1 -13 5 -16 15
-6 13 9 33 61 81 37 35 71 67 75 71 34 33 109 121 103 121 -5 0 -63 -55 -131
-121 -112 -111 -144 -132 -144 -95 0 8 28 40 62 72 88 83 173 174 162 174 -6
0 -61 -52 -124 -115 -103 -103 -116 -113 -130 -99 -13 13 -9 20 40 65 70 64
61 55 117 118 77 86 32 55 -77 -53 -85 -85 -101 -97 -115 -86 -13 11 -3 24 75
103 49 49 90 94 90 100 0 6 -2 8 -5 6 -2 -2 -44 -44 -94 -93 -82 -81 -111 -97
-111 -61 0 7 14 25 31 39 46 39 137 141 114 128 -11 -6 -51 -42 -90 -81 -38
-39 -72 -71 -76 -71 -4 0 -10 7 -13 16 -4 11 15 38 64 87 38 39 67 73 64 76
-2 3 -37 -27 -77 -67 -40 -40 -76 -72 -80 -72 -22 0 0 44 49 98 62 69 61 85
-1 21 -22 -22 -52 -49 -67 -60 l-27 -19 3 25 c2 14 20 44 41 65 22 22 35 40
29 40 -5 0 -30 -20 -54 -45 -49 -50 -55 -53 -64 -28 -4 10 3 26 20 45 15 15
25 30 23 33 -3 3 -18 -9 -34 -25 -16 -17 -34 -30 -41 -30 -22 0 -22 24 0 50
l21 24 -25 -17 c-14 -10 -31 -20 -39 -24 -15 -7 -33 16 -24 31 4 5 -1 7 -12 3
-9 -4 -24 -2 -32 5 -18 15 -50 33 -81 47 -12 6 -25 17 -28 26 -3 8 -10 12 -16
9 -5 -3 -17 1 -26 9 -9 8 -27 18 -39 21 -13 4 -23 12 -23 17 0 5 -6 9 -14 9
-7 0 -48 18 -90 39 -42 22 -76 37 -76 34 0 -3 -10 1 -22 9 -13 8 -59 27 -103
42 -44 15 -84 31 -90 35 -5 5 -25 11 -43 15 -19 3 -48 12 -65 19 -18 8 -52 19
-77 26 -97 25 -156 42 -170 48 -8 4 -19 7 -25 8 -43 6 -102 19 -110 24 -5 4
-30 9 -55 10 -25 1 -76 8 -115 16 -74 15 -304 46 -495 67 -84 9 -511 14 -1608
18 -1407 5 -1494 6 -1506 23 -13 16 -106 17 -1715 17 -971 0 -1701 -4 -1701
-9z m477 -348 c19 -21 39 -48 44 -61 5 -13 9 -241 9 -528 0 -464 -1 -507 -17
-531 -33 -50 -60 -73 -86 -73 -14 0 -29 -4 -32 -10 -18 -29 -145 5 -179 47
-46 58 -45 43 -46 587 l0 519 35 34 c19 19 35 38 35 43 0 6 44 10 102 10 l101
0 34 -37z m5603 -494 c25 -6 104 -14 177 -18 77 -4 137 -12 146 -19 8 -7 44
-15 81 -19 36 -3 71 -12 77 -19 6 -8 28 -14 48 -14 20 0 46 -7 58 -15 12 -8
39 -19 60 -23 21 -5 37 -13 36 -18 -1 -5 -4 -21 -8 -36 -5 -21 -3 -27 15 -33
12 -4 19 -13 16 -20 -3 -9 5 -12 27 -11 24 1 31 -3 30 -14 -2 -11 5 -16 25
-15 20 0 26 -4 24 -17 -2 -12 2 -16 13 -12 8 3 22 3 31 0 14 -5 14 -9 3 -23
-12 -15 -12 -16 4 -10 26 10 48 -3 42 -23 -5 -14 -1 -16 21 -12 24 4 26 2 21
-17 -4 -17 -2 -21 11 -17 9 3 23 1 31 -3 13 -8 13 -12 0 -27 -12 -16 -12 -17
4 -11 9 3 24 4 32 0 14 -5 14 -8 0 -29 -18 -28 -20 -43 -3 -26 16 16 48 15 48
-1 0 -8 -10 -22 -21 -33 -12 -10 -44 -46 -72 -79 l-51 -60 75 71 c68 66 99 81
99 50 0 -6 -36 -47 -81 -91 -44 -44 -90 -93 -101 -110 -12 -16 26 16 83 71 85
84 108 101 124 94 18 -6 4 -23 -107 -137 -71 -71 -128 -133 -128 -138 0 -5 53
43 118 106 104 104 152 137 152 106 0 -6 -76 -88 -170 -182 -93 -94 -170 -176
-170 -181 0 -5 73 64 163 154 115 115 169 162 185 162 22 0 22 -1 8 -22 -8
-11 -108 -114 -221 -228 -113 -114 -205 -211 -205 -216 0 -5 87 77 193 183
174 174 267 251 267 222 0 -9 -438 -460 -502 -518 -10 -8 -18 -20 -18 -25 0
-6 91 79 203 188 111 110 225 220 252 246 52 49 85 68 85 48 0 -7 -127 -139
-282 -295 -155 -155 -286 -291 -291 -300 -5 -10 75 66 179 168 104 102 203
196 219 210 17 13 58 57 93 96 41 47 70 71 82 70 11 -1 20 -5 20 -11 0 -5
-145 -155 -322 -334 -382 -383 -356 -356 -341 -351 7 2 103 93 215 202 112
109 216 210 231 225 15 15 67 69 115 120 66 71 91 92 104 87 12 -5 15 -12 10
-21 -4 -8 -175 -182 -380 -387 -205 -206 -372 -377 -372 -382 0 -9 445 427
624 612 70 73 132 133 137 133 5 0 9 -10 9 -23 0 -16 -106 -128 -386 -407
-212 -212 -390 -394 -396 -405 -6 -11 81 69 193 178 228 221 206 199 423 423
151 155 175 173 176 129 0 -5 -192 -202 -427 -437 -234 -234 -431 -435 -436
-445 -6 -10 89 78 209 195 120 117 225 218 232 225 7 7 101 103 209 215 186
192 212 213 213 167 0 -5 -211 -221 -470 -480 -258 -259 -470 -475 -470 -480
0 -5 98 87 218 204 119 117 223 218 230 224 7 7 116 119 244 250 183 188 233
235 240 223 5 -9 5 -23 0 -32 -5 -9 -234 -241 -508 -516 l-499 -499 -37 4
c-21 3 -41 1 -44 -5 -4 -6 -23 -8 -43 -5 -23 3 -44 -1 -56 -9 -11 -8 -35 -14
-55 -15 -375 -6 -2184 -8 -2195 -2 -14 8 -15 136 -14 1128 1 986 2 1171 8
1183 4 8 2122 -1 2161 -9z m1280 -1317 c0 -18 -12 -41 -34 -65 -37 -41 -36
-50 2 -14 l24 22 -7 -30 c-4 -16 -16 -42 -26 -57 -23 -33 -25 -45 -4 -28 25
21 19 -17 -11 -68 -15 -25 -21 -42 -15 -38 22 14 -19 -76 -51 -110 -10 -12
-18 -27 -16 -35 2 -7 -2 -13 -9 -14 -6 0 -15 -4 -20 -9 -5 -5 -3 -6 5 -2 20
12 14 -8 -19 -57 -35 -53 -194 -207 -213 -207 -8 0 -19 -7 -26 -15 -7 -8 -17
-15 -24 -15 -6 0 39 50 99 110 60 61 106 110 101 110 -4 0 -75 -65 -157 -145
-92 -90 -156 -145 -169 -145 -11 0 -20 3 -20 7 0 4 84 92 187 195 103 104 184
188 179 188 -5 0 -111 -101 -236 -225 -192 -190 -232 -225 -256 -224 -29 0
-29 0 20 42 27 23 69 65 95 92 25 28 136 141 246 253 109 111 195 202 190 202
-5 0 -151 -142 -325 -315 -271 -270 -321 -315 -346 -315 -27 0 -18 11 106 130
165 159 125 119 402 403 127 130 229 239 227 242 -3 2 -183 -174 -400 -391
-340 -339 -401 -397 -434 -404 -36 -8 -27 2 150 180 104 104 205 201 224 216
20 15 53 48 74 73 37 43 478 491 484 491 2 0 3 -13 3 -28z m-6916 -477 c8 -8
22 -15 30 -15 10 0 16 -9 16 -25 0 -13 8 -29 19 -34 18 -10 18 -67 23 -1748 6
-1921 11 -1772 -58 -1833 -33 -29 -39 -30 -124 -30 -81 0 -91 2 -120 26 -65
55 -60 -88 -60 1826 0 1732 0 1743 20 1756 11 7 20 23 20 37 0 15 6 25 14 25
7 0 19 7 26 15 9 11 34 15 96 15 60 0 87 -4 98 -15z m5106 -1344 c-17 -33 -12
-51 15 -51 19 0 23 -4 18 -17 -6 -15 -4 -16 9 -5 9 7 28 15 43 18 22 4 26 2
22 -11 -7 -16 3 -20 19 -6 5 4 22 11 38 15 23 6 27 4 23 -8 -7 -17 3 -21 19
-7 5 4 22 11 37 15 26 6 28 5 22 -15 -7 -21 -6 -21 16 -5 13 9 34 16 47 16 21
0 22 -2 12 -15 -13 -16 -1 -21 16 -6 13 12 64 23 64 13 0 -4 -5 -13 -12 -20
-17 -17 2 -15 21 2 20 17 71 30 71 17 0 -4 -22 -30 -50 -57 -27 -27 -50 -53
-50 -59 0 -5 26 16 58 47 50 49 120 87 110 59 -1 -5 -51 -58 -109 -118 -147
-152 -146 -162 2 -16 111 109 171 154 187 138 3 -3 -74 -85 -171 -183 -98 -98
-177 -183 -177 -188 0 -5 80 70 178 167 162 161 242 226 242 196 0 -6 -108
-119 -240 -252 -132 -133 -240 -245 -240 -251 0 -5 107 98 238 228 204 203
278 268 307 268 15 0 -45 -64 -325 -345 -165 -166 -300 -306 -300 -310 0 -5 2
-6 4 -4 3 2 128 126 278 274 150 149 293 288 317 310 47 42 91 69 99 60 3 -3
-154 -165 -348 -360 -195 -195 -358 -363 -363 -373 -5 -9 109 100 254 244 145
144 284 279 308 300 25 21 71 67 104 102 57 58 114 98 125 87 3 -3 -187 -199
-423 -435 -236 -236 -433 -437 -438 -447 -5 -10 116 106 269 258 154 151 308
302 344 335 36 32 107 105 159 162 84 92 152 144 169 127 5 -4 -892 -912 -976
-989 -13 -11 -28 -30 -34 -41 -6 -11 104 93 243 230 140 138 315 309 389 380
74 72 191 190 260 264 112 121 180 174 198 156 3 -3 -243 -254 -547 -559 -305
-304 -558 -561 -563 -572 -6 -10 75 65 178 167 104 103 206 202 228 220 37 33
333 332 595 600 111 115 171 159 171 125 0 -6 -277 -288 -616 -626 -338 -338
-620 -624 -626 -635 -6 -11 85 73 203 187 118 114 225 218 238 230 13 13 200
201 415 419 358 362 446 442 446 406 0 -7 -306 -318 -681 -692 -374 -374 -685
-689 -691 -700 -5 -11 72 62 173 161 101 100 197 192 213 205 16 13 52 49 80
79 28 30 247 252 488 493 393 394 478 470 496 452 4 -3 -324 -336 -727 -739
-404 -404 -738 -742 -744 -752 -8 -15 134 119 380 359 7 7 169 170 360 363
191 192 389 389 438 436 50 48 138 138 197 201 82 88 113 115 133 115 14 0 25
-3 25 -6 0 -3 -355 -361 -789 -796 -435 -435 -800 -804 -812 -821 -19 -24 322
300 411 391 64 66 801 804 925 926 77 76 172 172 210 213 64 69 105 93 105 63
0 -7 -386 -398 -857 -869 -471 -472 -861 -866 -866 -876 -8 -14 334 312 428
408 40 41 920 921 935 935 8 7 75 74 148 149 74 74 144 138 156 141 18 4 32
27 62 97 44 105 61 115 130 78 21 -12 46 -21 55 -21 9 0 19 -7 23 -15 3 -8 14
-15 25 -15 11 0 26 -6 33 -13 7 -7 24 -18 38 -25 38 -18 59 -33 125 -84 61
-47 175 -160 175 -173 0 -4 13 -24 29 -44 57 -74 113 -196 115 -251 0 -25 7
-49 14 -53 15 -10 16 -43 1 -52 -6 -5 -4 -11 7 -19 12 -10 15 -20 10 -40 -4
-16 -3 -25 3 -22 16 11 22 -26 7 -49 -8 -13 -58 -65 -112 -116 -53 -52 -101
-103 -106 -114 -12 -23 69 52 158 145 55 58 59 60 68 40 8 -18 -1 -31 -70
-100 -89 -89 -115 -131 -36 -57 28 26 56 47 62 47 5 0 10 6 10 14 0 7 6 19 14
25 11 9 15 8 20 -5 6 -17 -17 -56 -53 -88 -12 -11 -21 -24 -21 -30 0 -5 15 4
33 22 22 22 36 29 46 22 12 -7 12 -12 -2 -34 -21 -31 -21 -37 -2 -29 13 4 16
-3 15 -33 0 -22 0 -50 0 -64 1 -14 1 -58 1 -97 l0 -73 -43 -2 -43 -1 41 -4 40
-4 -17 -67 c-17 -67 -23 -84 -62 -177 -135 -318 -462 -544 -917 -634 -227 -44
-261 -46 -805 -43 -286 1 -540 2 -565 2 l-45 -1 155 155 c85 86 152 158 149
160 -3 3 -77 -67 -164 -154 -136 -136 -164 -160 -190 -160 -27 0 -10 20 210
240 132 132 235 240 230 240 -6 0 -118 -108 -250 -240 -207 -207 -244 -240
-270 -240 -27 0 -6 24 248 278 152 152 277 282 277 287 0 5 -130 -120 -289
-279 -222 -222 -293 -287 -306 -282 -10 3 -16 8 -14 11 83 85 342 350 494 504
110 112 195 202 188 200 -7 -2 -174 -165 -372 -361 -197 -197 -363 -358 -368
-358 -43 1 -23 27 148 191 99 96 204 199 232 229 29 30 133 137 232 238 98
100 175 182 171 182 -9 0 -192 -180 -606 -595 -176 -177 -251 -245 -267 -245
-13 0 -23 4 -23 8 0 7 475 478 520 516 8 7 35 35 59 62 24 27 117 123 205 213
89 90 155 162 148 160 -6 -2 -227 -219 -490 -482 -424 -424 -482 -478 -506
-475 -25 3 2 31 296 321 178 175 329 324 335 330 68 64 454 467 447 467 -5 0
-261 -252 -568 -559 l-559 -560 -121 -1 c-67 0 -275 -3 -462 -6 -352 -6 -393
-2 -380 32 3 9 6 564 6 1234 0 790 4 1220 10 1222 6 2 377 2 825 0 801 -2 815
-3 805 -21z"/>
<path d="M8075 9703 l-18 -28 27 24 c28 26 31 31 17 31 -5 0 -17 -12 -26 -27z"/>
<path d="M8009 9553 c-13 -16 -12 -17 4 -4 9 7 17 15 17 17 0 8 -8 3 -21 -13z"/>
<path d="M7849 9153 c-13 -16 -12 -17 4 -4 9 7 17 15 17 17 0 8 -8 3 -21 -13z"/>
<path d="M7689 8753 c-13 -16 -12 -17 4 -4 9 7 17 15 17 17 0 8 -8 3 -21 -13z"/>
<path d="M8060 7150 c0 -7 -145 -159 -322 -337 -177 -177 -326 -330 -331 -340
-6 -10 71 60 169 155 224 216 194 186 330 327 64 66 113 112 110 103 -3 -10
-3 -18 0 -18 9 0 56 111 50 117 -3 4 -6 0 -6 -7z"/>
<path d="M7895 6893 c-60 -62 -173 -177 -250 -254 -77 -78 -134 -140 -127
-137 7 2 112 102 234 223 122 121 219 212 215 203 -3 -10 -4 -18 -1 -18 5 0
46 92 42 94 -2 1 -52 -49 -113 -111z"/>
<path d="M7882 6801 c-40 -42 -123 -127 -185 -190 -61 -62 -107 -112 -100
-110 7 2 82 73 168 157 86 84 151 143 145 132 -6 -11 -8 -20 -6 -20 3 0 12 13
21 30 16 30 36 81 32 79 -1 -1 -35 -36 -75 -78z"/>
<path d="M7783 6620 c-62 -64 -113 -120 -113 -125 0 -4 40 31 90 79 49 47 93
86 98 86 8 0 46 71 40 74 -2 1 -54 -51 -115 -114z"/>
<path d="M7837 6592 c-53 -53 -97 -101 -97 -106 0 -9 178 157 198 185 31 44
-10 13 -101 -79z"/>
<path d="M7905 6580 c-115 -116 -134 -149 -31 -54 78 71 68 62 117 117 75 85
26 49 -86 -63z"/>
<path d="M7972 6567 c-129 -130 -168 -183 -54 -75 98 93 197 198 186 198 -5 0
-64 -55 -132 -123z"/>
<path d="M8020 6535 c-63 -63 -111 -115 -106 -115 5 0 31 20 57 45 26 25 53
45 59 45 5 0 10 5 10 12 0 7 23 36 52 65 28 29 50 55 47 57 -3 3 -56 -46 -119
-109z"/>
<path d="M6806 6594 c-5 -14 -4 -15 9 -4 17 14 19 20 6 20 -5 0 -12 -7 -15
-16z"/>
<path d="M8070 6505 c-105 -105 -127 -140 -41 -64 55 48 48 41 107 107 82 91
42 65 -66 -43z"/>
<path d="M8122 6478 c-50 -51 -89 -94 -87 -96 6 -6 74 56 140 127 82 88 44 65
-53 -31z"/>
<path d="M8174 6450 c-49 -49 -91 -95 -93 -102 -5 -16 88 69 148 135 76 83 38
60 -55 -33z"/>
<path d="M8227 6422 c-48 -48 -87 -91 -87 -96 0 -10 91 73 149 137 74 80 30
52 -62 -41z"/>
<path d="M8287 6402 c-42 -42 -77 -81 -77 -86 0 -10 73 56 131 119 69 75 29
50 -54 -33z"/>
<path d="M7355 6430 c-16 -17 -25 -30 -21 -30 11 0 61 49 55 55 -3 2 -18 -9
-34 -25z"/>
<path d="M8336 6370 c-93 -95 -108 -123 -23 -43 70 66 131 133 120 133 -5 0
-49 -40 -97 -90z"/>
<path d="M8407 6362 c-93 -93 -120 -136 -37 -58 27 25 54 46 60 46 5 0 10 5
10 12 0 7 17 29 37 50 20 21 33 38 27 38 -5 0 -49 -39 -97 -88z"/>
<path d="M8477 6352 c-48 -48 -87 -91 -87 -96 0 -10 79 62 146 134 79 84 34
55 -59 -38z"/>
<path d="M8542 6338 c-50 -51 -90 -94 -87 -96 5 -6 97 78 149 136 71 78 31 53
-62 -40z"/>
<path d="M8615 6330 c-93 -93 -108 -122 -26 -47 60 53 125 126 119 132 -2 2
-44 -36 -93 -85z"/>
<path d="M8687 6323 c-92 -93 -112 -128 -26 -48 72 67 133 135 122 135 -5 0
-48 -39 -96 -87z"/>
<path d="M7278 6350 c-18 -16 -30 -30 -26 -30 4 0 22 14 40 30 18 17 29 30 25
30 -4 0 -21 -13 -39 -30z"/>
<path d="M6795 5868 c-508 -509 -477 -478 -495 -503 -8 -11 83 75 201 190 118
116 226 219 239 230 14 12 38 36 54 55 16 19 121 128 234 242 113 114 204 210
201 212 -3 3 -198 -189 -434 -426z"/>
<path d="M6646 6194 c-5 -14 -4 -15 9 -4 17 14 19 20 6 20 -5 0 -12 -7 -15
-16z"/>
<path d="M7583 5933 c9 -2 25 -2 35 0 9 3 1 5 -18 5 -19 0 -27 -2 -17 -5z"/>
<path d="M7663 5933 c9 -2 25 -2 35 0 9 3 1 5 -18 5 -19 0 -27 -2 -17 -5z"/>
<path d="M7743 5933 c9 -2 23 -2 30 0 6 3 -1 5 -18 5 -16 0 -22 -2 -12 -5z"/>
<path d="M7823 5933 c9 -2 23 -2 30 0 6 3 -1 5 -18 5 -16 0 -22 -2 -12 -5z"/>
<path d="M7903 5933 c9 -2 23 -2 30 0 6 3 -1 5 -18 5 -16 0 -22 -2 -12 -5z"/>
<path d="M7983 5933 c9 -2 23 -2 30 0 6 3 -1 5 -18 5 -16 0 -22 -2 -12 -5z"/>
<path d="M8063 5933 c9 -2 23 -2 30 0 6 3 -1 5 -18 5 -16 0 -22 -2 -12 -5z"/>
<path d="M8143 5933 c9 -2 25 -2 35 0 9 3 1 5 -18 5 -19 0 -27 -2 -17 -5z"/>
<path d="M8223 5933 c9 -2 25 -2 35 0 9 3 1 5 -18 5 -19 0 -27 -2 -17 -5z"/>
<path d="M8303 5933 c9 -2 25 -2 35 0 9 3 1 5 -18 5 -19 0 -27 -2 -17 -5z"/>
<path d="M8383 5933 c9 -2 25 -2 35 0 9 3 1 5 -18 5 -19 0 -27 -2 -17 -5z"/>
<path d="M8463 5933 c9 -2 25 -2 35 0 9 3 1 5 -18 5 -19 0 -27 -2 -17 -5z"/>
<path d="M8543 5933 c9 -2 25 -2 35 0 9 3 1 5 -18 5 -19 0 -27 -2 -17 -5z"/>
<path d="M8623 5933 c9 -2 25 -2 35 0 9 3 1 5 -18 5 -19 0 -27 -2 -17 -5z"/>
<path d="M8703 5933 c9 -2 25 -2 35 0 9 3 1 5 -18 5 -19 0 -27 -2 -17 -5z"/>
<path d="M8783 5933 c9 -2 25 -2 35 0 9 3 1 5 -18 5 -19 0 -27 -2 -17 -5z"/>
<path d="M6486 5794 c-5 -14 -4 -15 9 -4 17 14 19 20 6 20 -5 0 -12 -7 -15
-16z"/>
<path d="M7275 5309 c-4 -6 -5 -12 -2 -15 2 -3 7 2 10 11 7 17 1 20 -8 4z"/>
<path d="M7225 5179 c-4 -6 -5 -12 -2 -15 2 -3 7 2 10 11 7 17 1 20 -8 4z"/>
<path d="M5985 5060 c-16 -16 -26 -32 -24 -35 3 -2 21 11 39 30 19 19 29 35
24 35 -6 0 -23 -13 -39 -30z"/>
<path d="M7175 5049 c-4 -6 -5 -12 -2 -15 2 -3 7 2 10 11 7 17 1 20 -8 4z"/>
<path d="M10097 10532 c-64 -64 -117 -121 -117 -126 0 -11 112 94 191 179 102
109 51 73 -74 -53z"/>
<path d="M10147 10502 c-125 -125 -158 -173 -54 -78 76 71 65 60 128 129 92
101 47 70 -74 -51z"/>
<path d="M10192 10467 c-138 -139 -181 -196 -63 -85 95 91 215 218 205 218 -5
0 -69 -60 -142 -133z"/>
<path d="M10225 10420 c-143 -143 -180 -194 -64 -87 92 84 86 79 155 155 99
108 43 67 -91 -68z"/>
<path d="M10272 10387 c-78 -78 -142 -146 -142 -151 0 -7 122 99 151 132 4 4
40 42 80 85 121 129 63 86 -89 -66z"/>
<path d="M10383 10418 c-119 -115 -228 -228 -232 -241 -3 -9 109 90 170 152
52 51 150 161 145 161 -5 0 -42 -33 -83 -72z"/>
<path d="M10332 10287 c-172 -172 -221 -236 -74 -98 107 102 87 82 173 173
130 139 67 91 -99 -75z"/>
<path d="M10367 10242 c-92 -93 -167 -172 -167 -176 0 -10 157 139 269 257
147 153 71 93 -102 -81z"/>
<path d="M10399 10195 c-187 -188 -241 -256 -88 -111 52 48 97 91 101 95 4 3
44 45 89 94 142 151 80 104 -102 -78z"/>
<path d="M10423 10138 c-191 -190 -251 -266 -90 -114 50 48 98 93 104 99 50
48 184 197 178 197 -5 0 -91 -82 -192 -182z"/>
<path d="M10465 10100 c-192 -191 -252 -266 -93 -114 128 122 293 294 282 294
-5 0 -90 -81 -189 -180z"/>
<path d="M10472 10027 c-100 -100 -182 -186 -182 -191 0 -11 158 140 289 277
161 167 85 106 -107 -86z"/>
<path d="M10497 9972 c-206 -206 -271 -286 -94 -118 56 54 105 101 109 105 45
42 199 211 192 211 -5 0 -98 -89 -207 -198z"/>
<path d="M10528 9923 c-203 -203 -260 -273 -96 -119 51 48 96 90 100 94 101
103 209 222 202 222 -5 0 -98 -89 -206 -197z"/>
<path d="M10552 9867 c-203 -204 -263 -278 -89 -111 143 139 291 293 285 299
-2 2 -91 -82 -196 -188z"/>
<path d="M10567 9802 c-103 -103 -187 -191 -187 -196 0 -8 87 70 197 177 56
54 194 207 187 207 -5 0 -94 -84 -197 -188z"/>
<path d="M10593 9748 c-111 -111 -200 -204 -198 -207 3 -2 44 34 93 81 48 46
94 89 102 94 9 5 26 23 39 39 12 17 59 67 103 113 44 45 77 82 72 82 -5 0
-100 -91 -211 -202z"/>
<path d="M10627 9702 c-194 -194 -256 -271 -94 -116 128 123 301 304 291 304
-5 0 -94 -84 -197 -188z"/>
<path d="M10643 9638 c-202 -201 -263 -278 -95 -119 53 51 100 95 103 99 4 4
51 53 105 110 164 171 92 114 -113 -90z"/>
<path d="M10662 9577 c-200 -200 -264 -279 -94 -118 53 51 100 96 104 100 46
43 199 211 192 211 -5 0 -96 -87 -202 -193z"/>
<path d="M10687 9522 c-108 -109 -197 -202 -197 -207 0 -5 39 30 88 77 48 46
94 89 103 94 8 5 22 20 31 33 9 13 56 63 104 112 48 49 83 89 78 89 -5 0 -98
-89 -207 -198z"/>
<path d="M10712 9467 c-204 -205 -258 -272 -94 -118 117 111 92 86 203 204
160 169 91 114 -109 -86z"/>
<path d="M10728 9403 c-198 -197 -257 -271 -90 -114 117 111 92 86 203 204
152 161 88 109 -113 -90z"/>
<path d="M10753 9348 c-209 -209 -267 -281 -96 -119 116 109 89 82 214 214
171 180 96 120 -118 -95z"/>
<path d="M10787 9302 c-195 -197 -254 -269 -94 -116 129 124 301 304 290 304
-5 0 -93 -85 -196 -188z"/>
<path d="M10797 9233 c-192 -193 -248 -264 -84 -109 50 49 95 91 99 95 4 3 46
48 94 99 151 160 86 109 -109 -85z"/>
<path d="M10827 9182 c-205 -205 -270 -285 -99 -123 53 51 100 96 104 100 45
43 200 212 197 216 -3 2 -94 -84 -202 -193z"/>
<path d="M10860 9134 c-218 -219 -213 -214 -204 -214 3 0 48 39 98 88 130 124
310 312 300 312 -5 0 -93 -84 -194 -186z"/>
<path d="M10876 9071 c-196 -196 -258 -272 -100 -122 54 51 102 96 106 100 44
41 189 201 182 201 -5 0 -90 -81 -188 -179z"/>
<path d="M10887 9002 c-198 -199 -253 -267 -89 -113 117 111 92 86 203 204
155 164 85 108 -114 -91z"/>
<path d="M10910 8945 c-113 -113 -201 -205 -196 -205 5 0 54 44 110 98 146
141 310 312 300 312 -5 0 -101 -92 -214 -205z"/>
<path d="M10937 8891 c-211 -212 -266 -280 -90 -111 142 137 297 299 291 305
-2 3 -93 -85 -201 -194z"/>
<path d="M10141 9061 c-8 -5 -9 -11 -3 -15 5 -3 12 1 16 9 6 17 6 18 -13 6z"/>
<path d="M10957 8833 c-193 -194 -246 -262 -84 -109 113 107 99 93 198 198
148 157 77 102 -114 -89z"/>
<path d="M10990 8786 c-106 -107 -198 -202 -203 -213 -12 -21 155 139 304 292
56 58 100 107 98 110 -3 2 -92 -83 -199 -189z"/>
<path d="M11012 8727 c-213 -214 -276 -290 -97 -118 143 137 309 310 303 316
-2 2 -95 -87 -206 -198z"/>
<path d="M11035 8670 c-192 -192 -249 -263 -94 -116 52 48 97 91 101 95 45 42
189 201 182 201 -5 0 -90 -81 -189 -180z"/>
<path d="M11047 8602 c-198 -199 -254 -269 -89 -113 117 113 93 88 198 198
157 166 83 107 -109 -85z"/>
<path d="M11070 8545 c-113 -113 -201 -205 -196 -205 5 0 54 44 110 98 146
141 310 312 300 312 -5 0 -101 -92 -214 -205z"/>
<path d="M11107 8502 c-196 -197 -254 -269 -94 -118 50 49 95 91 99 95 3 3 50
52 104 109 162 171 90 114 -109 -86z"/>
<path d="M11125 8440 c-192 -192 -249 -263 -94 -116 52 48 97 91 101 95 45 42
189 201 182 201 -5 0 -90 -81 -189 -180z"/>
<path d="M11253 8488 c-164 -161 -298 -299 -302 -311 -2 -7 43 33 100 88 138
134 313 315 304 315 -4 0 -50 -42 -102 -92z"/>
<path d="M11189 8344 c-101 -102 -193 -195 -203 -205 -11 -10 -16 -19 -11 -19
5 0 52 41 104 91 53 50 99 94 103 98 46 43 200 212 197 216 -3 2 -88 -79 -190
-181z"/>
<path d="M11195 8270 c-192 -192 -249 -263 -94 -116 52 48 97 91 101 95 34 30
188 201 181 201 -4 0 -89 -81 -188 -180z"/>
<path d="M11222 8218 c-198 -197 -268 -282 -106 -130 54 51 102 96 105 100 4
4 51 53 105 110 159 167 95 116 -104 -80z"/>
<path d="M11243 8158 c-208 -208 -269 -283 -96 -119 116 109 89 82 214 214
169 177 99 121 -118 -95z"/>
<path d="M11270 8105 c-196 -196 -261 -275 -94 -115 138 133 298 300 288 300
-5 0 -93 -83 -194 -185z"/>
<path d="M11383 8138 c-161 -158 -288 -289 -292 -301 -3 -9 136 116 206 186
72 73 195 207 188 207 -4 0 -50 -42 -102 -92z"/>
<path d="M11308 7983 c-114 -114 -208 -212 -208 -217 0 -5 48 38 107 95 153
148 327 329 317 329 -4 0 -102 -93 -216 -207z"/>
<path d="M11320 7915 c-233 -233 -296 -309 -104 -127 144 138 113 107 235 235
176 185 93 117 -131 -108z"/>
<path d="M11313 7828 c-122 -122 -220 -224 -218 -227 4 -3 80 67 267 247 4 4
48 51 99 105 166 176 78 101 -148 -125z"/>
<path d="M11213 7647 c-282 -282 -360 -366 -353 -377 9 -13 10 -13 10 0 0 13
91 105 512 518 72 71 210 222 202 222 -5 0 -172 -163 -371 -363z"/>
<path d="M11239 7594 c-326 -325 -364 -367 -352 -382 10 -13 12 -13 8 -2 -4
11 76 96 247 264 139 137 256 251 260 255 36 32 210 222 207 226 -3 2 -169
-160 -370 -361z"/>
<path d="M11262 7538 c-287 -288 -361 -366 -356 -382 5 -16 8 -15 21 11 10 22
414 430 485 492 4 3 55 56 113 118 92 98 113 123 102 123 -1 0 -165 -163 -365
-362z"/>
<path d="M11050 7879 c0 -5 5 -7 10 -4 6 3 10 8 10 11 0 2 -4 4 -10 4 -5 0
-10 -5 -10 -11z"/>
<path d="M11632 7821 c-8 -4 -171 -165 -363 -357 -253 -252 -348 -353 -343
-364 6 -13 8 -13 11 1 2 9 14 22 27 28 12 7 30 25 39 39 8 15 107 116 219 226
112 109 212 208 223 219 11 12 62 65 114 119 52 54 92 98 90 98 -2 0 -10 -4
-17 -9z"/>
<path d="M11671 7781 c-29 -18 -730 -725 -726 -731 4 -6 69 47 100 82 9 10
375 375 409 408 40 39 239 250 235 250 -2 0 -10 -4 -18 -9z"/>
<path d="M11335 7370 c-198 -198 -362 -365 -364 -372 -5 -15 101 76 137 117
20 23 323 326 354 354 40 36 249 261 242 261 -5 0 -171 -162 -369 -360z"/>
<path d="M11345 7301 c-331 -331 -442 -452 -289 -314 38 35 74 68 81 75 28 29
312 315 331 333 62 58 243 255 236 255 -5 0 -167 -157 -359 -349z"/>
<path d="M11721 7591 c-32 -20 -710 -705 -705 -712 3 -6 382 361 494 479 14
14 72 75 129 134 57 59 102 108 100 108 -2 0 -11 -4 -18 -9z"/>
<path d="M11049 7553 c-13 -16 -12 -17 4 -4 9 7 17 15 17 17 0 8 -8 3 -21 -13z"/>
<path d="M11636 7431 c-307 -303 -591 -592 -594 -605 -2 -8 23 12 55 43 32 31
76 72 98 92 22 19 83 80 136 135 52 54 118 122 146 149 123 122 306 315 298
315 -4 0 -67 -58 -139 -129z"/>
<path d="M11423 7138 c-194 -194 -355 -356 -359 -360 -3 -3 -1 -15 5 -25 10
-17 10 -17 11 3 0 14 23 41 63 75 34 30 89 82 122 117 33 36 98 101 144 146
46 44 98 97 115 116 17 19 85 90 150 158 66 67 116 122 110 122 -5 0 -167
-159 -361 -352z"/>
<path d="M10954 7458 l-19 -23 23 19 c21 18 27 26 19 26 -2 0 -12 -10 -23 -22z"/>
<path d="M10824 7416 c-10 -8 -16 -17 -13 -20 3 -3 14 3 24 14 21 23 17 26
-11 6z"/>
<path d="M11432 7068 c-208 -208 -348 -356 -343 -361 5 -5 72 56 162 148 85
86 178 180 208 208 30 29 68 68 85 87 17 19 80 86 140 147 60 62 108 115 105
117 -3 3 -163 -153 -357 -346z"/>
<path d="M10860 7375 c-18 -19 -31 -37 -29 -40 3 -2 23 13 44 35 22 22 35 40
29 40 -6 0 -25 -16 -44 -35z"/>
<path d="M11288 6843 c-581 -582 -550 -550 -524 -536 19 11 731 707 795 778
20 22 90 95 155 163 66 67 116 122 110 122 -5 0 -246 -237 -536 -527z"/>
<path d="M11365 6840 c-567 -568 -500 -500 -490 -500 4 0 153 143 331 318 178
174 335 328 349 342 91 89 316 330 309 330 -5 0 -230 -221 -499 -490z"/>
<path d="M11433 6828 c-232 -232 -420 -424 -417 -427 3 -3 391 372 574 556
118 118 281 293 274 293 -5 0 -199 -190 -431 -422z"/>
<path d="M11517 6832 c-196 -196 -357 -361 -357 -366 0 -5 105 93 233 218 127
125 235 230 239 234 4 4 64 67 134 140 239 250 108 132 -249 -226z"/>
<path d="M11594 6830 c-181 -182 -331 -336 -333 -343 -3 -10 348 325 414 395
11 12 74 77 139 145 66 68 117 125 115 128 -3 2 -153 -144 -335 -325z"/>
<path d="M11640 6795 c-342 -343 -305 -305 -296 -305 5 0 308 287 358 338 3 4
61 64 129 135 227 236 106 129 -191 -168z"/>
<path d="M11960 7030 c-25 -15 -530 -524 -525 -528 3 -3 72 60 154 140 146
142 397 398 390 398 -2 0 -11 -4 -19 -10z"/>
<path d="M11993 6986 c-6 -6 -122 -121 -257 -256 -257 -256 -328 -341 -108
-131 181 174 388 388 381 395 -2 2 -9 -1 -16 -8z"/>
<path d="M11787 6702 c-239 -240 -306 -321 -114 -138 61 59 115 111 119 114
53 51 230 243 226 247 -2 2 -106 -98 -231 -223z"/>
<path d="M11809 6645 c-117 -118 -216 -221 -218 -227 -3 -10 187 165 251 230
4 4 48 51 99 105 166 176 87 111 -132 -108z"/>
<path d="M11855 6610 c-214 -214 -275 -288 -104 -127 124 117 96 89 220 220
171 179 96 120 -116 -93z"/>
<path d="M12091 6761 c-25 -16 -421 -415 -416 -419 3 -4 178 154 217 196 3 4
55 58 114 120 59 61 105 112 103 112 -2 0 -10 -4 -18 -9z"/>
<path d="M10843 6478 c-117 -117 -210 -214 -208 -217 3 -2 47 36 98 85 51 49
108 103 125 119 42 39 212 216 212 221 0 16 -40 -21 -227 -208z"/>
<path d="M11912 6507 c-191 -191 -249 -264 -88 -110 126 121 291 293 280 293
-5 0 -91 -82 -192 -183z"/>
<path d="M11937 6452 c-103 -103 -187 -191 -187 -196 0 -5 42 31 93 81 143
138 301 303 291 303 -5 0 -94 -84 -197 -188z"/>
<path d="M11980 6415 c-96 -96 -177 -180 -179 -187 -3 -10 69 53 171 151 52
49 199 211 192 211 -5 0 -88 -79 -184 -175z"/>
<path d="M11997 6352 c-185 -185 -245 -260 -85 -106 130 125 282 284 272 284
-5 0 -89 -80 -187 -178z"/>
<path d="M12017 6292 c-184 -184 -242 -257 -89 -113 48 46 90 86 94 90 46 43
189 201 182 201 -5 0 -89 -80 -187 -178z"/>
<path d="M12058 6253 c-98 -98 -178 -181 -178 -186 0 -12 130 112 268 255 166
172 106 125 -90 -69z"/>
<path d="M12077 6192 c-184 -184 -238 -251 -94 -118 45 42 85 80 89 84 110
113 199 212 192 212 -5 0 -89 -80 -187 -178z"/>
<path d="M12085 6120 c-182 -182 -234 -248 -89 -112 107 100 94 87 195 195
141 149 72 96 -106 -83z"/>
<path d="M12112 6067 c-188 -189 -248 -263 -94 -118 48 46 90 86 94 90 33 28
190 202 187 206 -3 2 -87 -78 -187 -178z"/>
<path d="M12150 6026 c-186 -187 -250 -264 -104 -127 105 98 81 74 195 193
156 164 94 118 -91 -66z"/>
<path d="M12165 5960 c-190 -189 -249 -263 -99 -121 49 46 92 86 96 90 4 3 48
50 98 103 80 86 98 108 87 108 -1 0 -84 -81 -182 -180z"/>
<path d="M12170 5885 c-187 -187 -238 -253 -81 -104 47 45 89 84 93 88 4 3 48
50 99 104 154 163 85 108 -111 -88z"/>
<path d="M12202 5837 c-106 -106 -192 -197 -192 -202 0 -6 163 142 201 183 4
4 51 53 105 110 168 176 88 111 -114 -91z"/>
<path d="M12232 5787 c-190 -190 -245 -259 -94 -118 103 97 80 74 193 194 155
164 94 117 -99 -76z"/>
<path d="M10623 5933 c9 -2 25 -2 35 0 9 3 1 5 -18 5 -19 0 -27 -2 -17 -5z"/>
<path d="M10703 5933 c9 -2 25 -2 35 0 9 3 1 5 -18 5 -19 0 -27 -2 -17 -5z"/>
<path d="M10783 5933 c9 -2 23 -2 30 0 6 3 -1 5 -18 5 -16 0 -22 -2 -12 -5z"/>
<path d="M10863 5933 c9 -2 23 -2 30 0 6 3 -1 5 -18 5 -16 0 -22 -2 -12 -5z"/>
<path d="M10943 5933 c9 -2 23 -2 30 0 6 3 -1 5 -18 5 -16 0 -22 -2 -12 -5z"/>
<path d="M11023 5933 c9 -2 23 -2 30 0 6 3 -1 5 -18 5 -16 0 -22 -2 -12 -5z"/>
<path d="M11103 5933 c9 -2 23 -2 30 0 6 3 -1 5 -18 5 -16 0 -22 -2 -12 -5z"/>
<path d="M11183 5933 c9 -2 23 -2 30 0 6 3 -1 5 -18 5 -16 0 -22 -2 -12 -5z"/>
<path d="M11263 5933 c9 -2 25 -2 35 0 9 3 1 5 -18 5 -19 0 -27 -2 -17 -5z"/>
<path d="M11343 5933 c9 -2 25 -2 35 0 9 3 1 5 -18 5 -19 0 -27 -2 -17 -5z"/>
<path d="M11418 5933 c7 -3 16 -2 19 1 4 3 -2 6 -13 5 -11 0 -14 -3 -6 -6z"/>
<path d="M12242 5717 c-191 -191 -247 -262 -89 -113 113 107 99 93 198 198
146 156 78 103 -109 -85z"/>
<path d="M12267 5662 c-103 -103 -187 -191 -187 -196 0 -5 42 31 93 81 143
138 301 303 291 303 -5 0 -94 -84 -197 -188z"/>
<path d="M12305 5620 c-190 -190 -249 -263 -99 -121 49 46 92 86 95 90 98 99
200 211 193 211 -5 0 -90 -81 -189 -180z"/>
<path d="M12313 5548 c-187 -187 -242 -257 -85 -109 48 46 90 86 94 90 46 44
189 201 182 201 -5 0 -91 -82 -191 -182z"/>
<path d="M12330 5485 c-102 -102 -181 -185 -176 -185 11 0 157 139 280 268
165 171 93 114 -104 -83z"/>
<path d="M12392 5468 c-177 -177 -261 -276 -114 -135 45 42 86 77 90 77 5 0
13 9 18 20 5 11 51 62 103 115 52 52 90 95 86 95 -5 0 -87 -78 -183 -172z"/>
<path d="M12397 5392 c-185 -185 -245 -260 -85 -106 130 125 282 284 272 284
-5 0 -89 -80 -187 -178z"/>
<path d="M12420 5335 c-167 -167 -210 -225 -71 -94 90 84 70 64 172 172 140
148 73 96 -101 -78z"/>
<path d="M12460 5295 c-162 -162 -220 -234 -84 -105 115 110 258 260 248 260
-5 0 -79 -70 -164 -155z"/>
<path d="M12487 5242 c-86 -87 -157 -162 -157 -167 0 -7 33 22 162 144 4 3 44
45 89 94 135 144 74 98 -94 -71z"/>
<path d="M12528 5203 c-151 -150 -207 -222 -75 -97 102 97 241 244 232 244 -5
0 -75 -66 -157 -147z"/>
<path d="M12570 5165 c-145 -145 -184 -198 -63 -85 35 33 67 60 72 60 4 0 12
9 17 19 5 11 38 49 73 85 34 37 59 66 54 66 -4 0 -73 -65 -153 -145z"/>
<path d="M12600 5115 c-80 -80 -142 -145 -138 -145 11 0 146 126 223 208 119
127 64 87 -85 -63z"/>
<path d="M12652 5086 c-140 -141 -177 -191 -64 -87 81 76 67 62 143 144 110
119 57 81 -79 -57z"/>
<path d="M12694 5048 c-74 -72 -131 -134 -129 -136 6 -6 108 90 208 196 115
120 63 81 -79 -60z"/>
<path d="M12750 5025 c-132 -132 -177 -191 -69 -90 90 84 213 215 202 215 -5
0 -65 -56 -133 -125z"/>
<path d="M12798 4993 c-122 -121 -162 -176 -60 -84 67 62 55 50 133 134 99
107 57 78 -73 -50z"/>
<path d="M12842 4957 c-129 -129 -165 -180 -59 -83 74 69 61 56 138 139 103
112 52 75 -79 -56z"/>
<path d="M12885 4920 c-123 -123 -151 -166 -41 -62 88 83 181 182 170 182 -5
0 -63 -54 -129 -120z"/>
<path d="M12950 4905 c-113 -113 -150 -165 -54 -75 82 77 178 180 167 180 -5
0 -56 -47 -113 -105z"/>
<path d="M12995 4870 c-66 -66 -116 -120 -111 -120 11 0 99 82 185 173 107
113 53 75 -74 -53z"/>
<path d="M13054 4848 c-63 -61 -112 -114 -109 -116 3 -3 27 16 54 41 28 26 55
47 61 47 5 0 10 5 10 12 0 7 26 38 57 70 32 32 53 58 49 58 -5 0 -60 -50 -122
-112z"/>
<path d="M13100 4815 c-63 -63 -111 -115 -106 -115 11 0 85 70 175 163 108
113 53 74 -69 -48z"/>
<path d="M13160 4795 c-69 -69 -121 -125 -116 -125 11 0 99 82 185 173 110
117 61 82 -69 -48z"/>
<path d="M13258 4813 c-81 -76 -152 -152 -157 -166 -2 -7 21 12 52 41 31 28
61 52 66 52 6 0 11 5 11 12 0 7 23 36 52 65 70 71 52 68 -24 -4z"/>
<path d="M13252 4727 c-51 -51 -92 -96 -92 -101 0 -10 101 83 154 142 72 79
31 52 -62 -41z"/>
<path d="M13282 4678 c-90 -91 -104 -121 -18 -40 30 29 58 52 63 52 9 0 46 61
40 66 -2 2 -40 -33 -85 -78z"/>
<path d="M13322 4637 c-34 -34 -62 -66 -62 -71 0 -9 119 100 133 121 20 31
-14 8 -71 -50z"/>
<path d="M13365 4600 c-27 -27 -47 -52 -44 -55 3 -2 27 18 54 45 27 27 47 52
44 55 -3 2 -27 -18 -54 -45z"/>
<path d="M13390 4545 c-24 -25 -40 -45 -34 -45 13 0 89 78 83 85 -3 2 -25 -16
-49 -40z"/>
<path d="M13430 4505 c-13 -14 -21 -27 -18 -30 2 -3 17 9 33 25 16 17 24 30
19 30 -6 0 -21 -11 -34 -25z"/>
<path d="M13455 4450 c-27 -30 -12 -34 15 -5 13 14 19 25 13 25 -5 0 -18 -9
-28 -20z"/>
<path d="M13518 4183 c7 -3 16 -2 19 1 4 3 -2 6 -13 5 -11 0 -14 -3 -6 -6z"/>
</g>
</svg>
